<svg xmlns="http://www.w3.org/2000/svg" viewBox="0 0 512 512">
<defs>
<radialGradient id="bg" cx="0.5" cy="0.36" r="0.85">
 <stop offset="0" stop-color="#565660"/><stop offset="1" stop-color="#2a2a30"/></radialGradient>
<radialGradient id="tire" cx="0.42" cy="0.36" r="0.72">
 <stop offset="0" stop-color="#46464c"/><stop offset="1" stop-color="#1e1e22"/></radialGradient>
<radialGradient id="hub" cx="0.4" cy="0.35" r="0.8">
 <stop offset="0" stop-color="#F2A24E"/><stop offset="1" stop-color="#D9781C"/></radialGradient>
</defs>
<rect width="512" height="512" rx="112" fill="url(#bg)"/>
<circle cx="256" cy="256" r="198" fill="url(#tire)"/>
<g><g transform="translate(433.3,287.3) rotate(55.0)"><rect x="-21.0" y="-29.0" width="42" height="58" rx="9" fill="#15151a"/></g><g transform="translate(411.9,346.0) rotate(75.0)"><rect x="-16.0" y="-23.0" width="32" height="46" rx="9" fill="#33333a"/></g><g transform="translate(371.7,393.9) rotate(95.0)"><rect x="-21.0" y="-29.0" width="42" height="58" rx="9" fill="#15151a"/></g><g transform="translate(317.6,425.1) rotate(115.0)"><rect x="-16.0" y="-23.0" width="32" height="46" rx="9" fill="#33333a"/></g><g transform="translate(256.0,436.0) rotate(135.0)"><rect x="-21.0" y="-29.0" width="42" height="58" rx="9" fill="#15151a"/></g><g transform="translate(194.4,425.1) rotate(155.0)"><rect x="-16.0" y="-23.0" width="32" height="46" rx="9" fill="#33333a"/></g><g transform="translate(140.3,393.9) rotate(175.0)"><rect x="-21.0" y="-29.0" width="42" height="58" rx="9" fill="#15151a"/></g><g transform="translate(100.1,346.0) rotate(195.0)"><rect x="-16.0" y="-23.0" width="32" height="46" rx="9" fill="#33333a"/></g><g transform="translate(78.7,287.3) rotate(215.0)"><rect x="-21.0" y="-29.0" width="42" height="58" rx="9" fill="#15151a"/></g><g transform="translate(78.7,224.7) rotate(235.0)"><rect x="-16.0" y="-23.0" width="32" height="46" rx="9" fill="#33333a"/></g><g transform="translate(100.1,166.0) rotate(255.0)"><rect x="-21.0" y="-29.0" width="42" height="58" rx="9" fill="#15151a"/></g><g transform="translate(140.3,118.1) rotate(275.0)"><rect x="-16.0" y="-23.0" width="32" height="46" rx="9" fill="#33333a"/></g><g transform="translate(194.4,86.9) rotate(295.0)"><rect x="-21.0" y="-29.0" width="42" height="58" rx="9" fill="#15151a"/></g><g transform="translate(256.0,76.0) rotate(315.0)"><rect x="-16.0" y="-23.0" width="32" height="46" rx="9" fill="#33333a"/></g><g transform="translate(317.6,86.9) rotate(335.0)"><rect x="-21.0" y="-29.0" width="42" height="58" rx="9" fill="#15151a"/></g><g transform="translate(371.7,118.1) rotate(355.0)"><rect x="-16.0" y="-23.0" width="32" height="46" rx="9" fill="#33333a"/></g><g transform="translate(411.9,166.0) rotate(375.0)"><rect x="-21.0" y="-29.0" width="42" height="58" rx="9" fill="#15151a"/></g><g transform="translate(433.3,224.7) rotate(395.0)"><rect x="-16.0" y="-23.0" width="32" height="46" rx="9" fill="#33333a"/></g></g>
<circle cx="256" cy="256" r="150" fill="#161619"/>
<circle cx="256" cy="256" r="132" fill="none" stroke="#E67E22" stroke-width="17"/>
<circle cx="256" cy="256" r="121" fill="#6c6c74"/>
<circle cx="256" cy="256" r="121" fill="none" stroke="#3a3a40" stroke-width="4"/>
<g><line x1="288.5" y1="288.5" x2="339.4" y2="339.4" stroke="#E67E22" stroke-width="20" stroke-linecap="round"/><line x1="235.1" y1="297.0" x2="202.4" y2="361.1" stroke="#E67E22" stroke-width="20" stroke-linecap="round"/><line x1="210.6" y1="248.8" x2="139.5" y2="237.5" stroke="#E67E22" stroke-width="20" stroke-linecap="round"/><line x1="248.8" y1="210.6" x2="237.5" y2="139.5" stroke="#E67E22" stroke-width="20" stroke-linecap="round"/><line x1="297.0" y1="235.1" x2="361.1" y2="202.4" stroke="#E67E22" stroke-width="20" stroke-linecap="round"/></g>
<circle cx="256" cy="256" r="44" fill="url(#hub)"/>
<circle cx="256" cy="256" r="44" fill="none" stroke="#A85B16" stroke-width="3"/>
<circle cx="256" cy="256" r="13" fill="#26262b"/>
</svg>